<?xml version="1.0" encoding="UTF-8"?>
<!DOCTYPE svg PUBLIC "-//W3C//DTD SVG 1.1//EN" "http://www.w3.org/Graphics/SVG/1.1/DTD/svg11.dtd">
<svg width="160mm" height="90mm" viewBox="0 0 16000 9000" version="1.1" xmlns="http://www.w3.org/2000/svg" stroke-width="28.222" stroke-linejoin="round" xml:space="preserve">
 <path fill="rgb(255,255,255)" stroke="none" d="M 8000,8999 L 0,8999 0,0 15999,0 15999,8999 8000,8999 Z"/>
 <path fill="none" stroke="rgb(179,179,179)" stroke-linejoin="round" d="M 8653,7046 L 1952,7046 1952,379 15354,379 15354,7046 8653,7046 Z"/>
 <path fill="none" stroke="rgb(179,179,179)" stroke-linejoin="round" d="M 1952,378 L 1952,7045"/>
 <path fill="none" stroke="rgb(179,179,179)" stroke-linejoin="round" d="M 2175,378 L 2175,7045"/>
 <path fill="none" stroke="rgb(179,179,179)" stroke-linejoin="round" d="M 2398,378 L 2398,7045"/>
 <path fill="none" stroke="rgb(179,179,179)" stroke-linejoin="round" d="M 2622,378 L 2622,7045"/>
 <path fill="none" stroke="rgb(179,179,179)" stroke-linejoin="round" d="M 2845,378 L 2845,7045"/>
 <path fill="none" stroke="rgb(179,179,179)" stroke-linejoin="round" d="M 3068,378 L 3068,7045"/>
 <path fill="none" stroke="rgb(179,179,179)" stroke-linejoin="round" d="M 3292,378 L 3292,7045"/>
 <path fill="none" stroke="rgb(179,179,179)" stroke-linejoin="round" d="M 3515,378 L 3515,7045"/>
 <path fill="none" stroke="rgb(179,179,179)" stroke-linejoin="round" d="M 3739,378 L 3739,7045"/>
 <path fill="none" stroke="rgb(179,179,179)" stroke-linejoin="round" d="M 3962,378 L 3962,7045"/>
 <path fill="none" stroke="rgb(179,179,179)" stroke-linejoin="round" d="M 4185,378 L 4185,7045"/>
 <path fill="none" stroke="rgb(179,179,179)" stroke-linejoin="round" d="M 4409,378 L 4409,7045"/>
 <path fill="none" stroke="rgb(179,179,179)" stroke-linejoin="round" d="M 4632,378 L 4632,7045"/>
 <path fill="none" stroke="rgb(179,179,179)" stroke-linejoin="round" d="M 4855,378 L 4855,7045"/>
 <path fill="none" stroke="rgb(179,179,179)" stroke-linejoin="round" d="M 5079,378 L 5079,7045"/>
 <path fill="none" stroke="rgb(179,179,179)" stroke-linejoin="round" d="M 5302,378 L 5302,7045"/>
 <path fill="none" stroke="rgb(179,179,179)" stroke-linejoin="round" d="M 5526,378 L 5526,7045"/>
 <path fill="none" stroke="rgb(179,179,179)" stroke-linejoin="round" d="M 5749,378 L 5749,7045"/>
 <path fill="none" stroke="rgb(179,179,179)" stroke-linejoin="round" d="M 5972,378 L 5972,7045"/>
 <path fill="none" stroke="rgb(179,179,179)" stroke-linejoin="round" d="M 6196,378 L 6196,7045"/>
 <path fill="none" stroke="rgb(179,179,179)" stroke-linejoin="round" d="M 6419,378 L 6419,7045"/>
 <path fill="none" stroke="rgb(179,179,179)" stroke-linejoin="round" d="M 6643,378 L 6643,7045"/>
 <path fill="none" stroke="rgb(179,179,179)" stroke-linejoin="round" d="M 6866,378 L 6866,7045"/>
 <path fill="none" stroke="rgb(179,179,179)" stroke-linejoin="round" d="M 7089,378 L 7089,7045"/>
 <path fill="none" stroke="rgb(179,179,179)" stroke-linejoin="round" d="M 7313,378 L 7313,7045"/>
 <path fill="none" stroke="rgb(179,179,179)" stroke-linejoin="round" d="M 7536,378 L 7536,7045"/>
 <path fill="none" stroke="rgb(179,179,179)" stroke-linejoin="round" d="M 7759,378 L 7759,7045"/>
 <path fill="none" stroke="rgb(179,179,179)" stroke-linejoin="round" d="M 7983,378 L 7983,7045"/>
 <path fill="none" stroke="rgb(179,179,179)" stroke-linejoin="round" d="M 8205,378 L 8205,7045"/>
 <path fill="none" stroke="rgb(179,179,179)" stroke-linejoin="round" d="M 8429,378 L 8429,7045"/>
 <path fill="none" stroke="rgb(179,179,179)" stroke-linejoin="round" d="M 8652,378 L 8652,7045"/>
 <path fill="none" stroke="rgb(179,179,179)" stroke-linejoin="round" d="M 8875,378 L 8875,7045"/>
 <path fill="none" stroke="rgb(179,179,179)" stroke-linejoin="round" d="M 9099,378 L 9099,7045"/>
 <path fill="none" stroke="rgb(179,179,179)" stroke-linejoin="round" d="M 9322,378 L 9322,7045"/>
 <path fill="none" stroke="rgb(179,179,179)" stroke-linejoin="round" d="M 9546,378 L 9546,7045"/>
 <path fill="none" stroke="rgb(179,179,179)" stroke-linejoin="round" d="M 9769,378 L 9769,7045"/>
 <path fill="none" stroke="rgb(179,179,179)" stroke-linejoin="round" d="M 9992,378 L 9992,7045"/>
 <path fill="none" stroke="rgb(179,179,179)" stroke-linejoin="round" d="M 10216,378 L 10216,7045"/>
 <path fill="none" stroke="rgb(179,179,179)" stroke-linejoin="round" d="M 10439,378 L 10439,7045"/>
 <path fill="none" stroke="rgb(179,179,179)" stroke-linejoin="round" d="M 10662,378 L 10662,7045"/>
 <path fill="none" stroke="rgb(179,179,179)" stroke-linejoin="round" d="M 10886,378 L 10886,7045"/>
 <path fill="none" stroke="rgb(179,179,179)" stroke-linejoin="round" d="M 11109,378 L 11109,7045"/>
 <path fill="none" stroke="rgb(179,179,179)" stroke-linejoin="round" d="M 11333,378 L 11333,7045"/>
 <path fill="none" stroke="rgb(179,179,179)" stroke-linejoin="round" d="M 11556,378 L 11556,7045"/>
 <path fill="none" stroke="rgb(179,179,179)" stroke-linejoin="round" d="M 11779,378 L 11779,7045"/>
 <path fill="none" stroke="rgb(179,179,179)" stroke-linejoin="round" d="M 12003,378 L 12003,7045"/>
 <path fill="none" stroke="rgb(179,179,179)" stroke-linejoin="round" d="M 12226,378 L 12226,7045"/>
 <path fill="none" stroke="rgb(179,179,179)" stroke-linejoin="round" d="M 12450,378 L 12450,7045"/>
 <path fill="none" stroke="rgb(179,179,179)" stroke-linejoin="round" d="M 12673,378 L 12673,7045"/>
 <path fill="none" stroke="rgb(179,179,179)" stroke-linejoin="round" d="M 12896,378 L 12896,7045"/>
 <path fill="none" stroke="rgb(179,179,179)" stroke-linejoin="round" d="M 13120,378 L 13120,7045"/>
 <path fill="none" stroke="rgb(179,179,179)" stroke-linejoin="round" d="M 13343,378 L 13343,7045"/>
 <path fill="none" stroke="rgb(179,179,179)" stroke-linejoin="round" d="M 13566,378 L 13566,7045"/>
 <path fill="none" stroke="rgb(179,179,179)" stroke-linejoin="round" d="M 13790,378 L 13790,7045"/>
 <path fill="none" stroke="rgb(179,179,179)" stroke-linejoin="round" d="M 14013,378 L 14013,7045"/>
 <path fill="none" stroke="rgb(179,179,179)" stroke-linejoin="round" d="M 14237,378 L 14237,7045"/>
 <path fill="none" stroke="rgb(179,179,179)" stroke-linejoin="round" d="M 14460,378 L 14460,7045"/>
 <path fill="none" stroke="rgb(179,179,179)" stroke-linejoin="round" d="M 14683,378 L 14683,7045"/>
 <path fill="none" stroke="rgb(179,179,179)" stroke-linejoin="round" d="M 14907,378 L 14907,7045"/>
 <path fill="none" stroke="rgb(179,179,179)" stroke-linejoin="round" d="M 15130,378 L 15130,7045"/>
 <path fill="none" stroke="rgb(179,179,179)" stroke-linejoin="round" d="M 15354,378 L 15354,7045"/>
 <path fill="none" stroke="rgb(179,179,179)" stroke-linejoin="round" d="M 15354,7045 L 1952,7045"/>
 <path fill="none" stroke="rgb(179,179,179)" stroke-linejoin="round" d="M 15354,5933 L 1952,5933"/>
 <path fill="none" stroke="rgb(179,179,179)" stroke-linejoin="round" d="M 15354,4822 L 1952,4822"/>
 <path fill="none" stroke="rgb(179,179,179)" stroke-linejoin="round" d="M 15354,3712 L 1952,3712"/>
 <path fill="none" stroke="rgb(179,179,179)" stroke-linejoin="round" d="M 15354,2600 L 1952,2600"/>
 <path fill="none" stroke="rgb(179,179,179)" stroke-linejoin="round" d="M 15354,1489 L 1952,1489"/>
 <path fill="none" stroke="rgb(179,179,179)" stroke-linejoin="round" d="M 15354,378 L 1952,378"/>
 <path fill="none" stroke="rgb(179,179,179)" stroke-linejoin="round" d="M 1952,7195 L 1952,7045"/>
 <path fill="none" stroke="rgb(179,179,179)" stroke-linejoin="round" d="M 1952,7195 L 1952,7045"/>
 <path fill="none" stroke="rgb(179,179,179)" stroke-linejoin="round" d="M 2175,7195 L 2175,7045"/>
 <path fill="none" stroke="rgb(179,179,179)" stroke-linejoin="round" d="M 2175,7195 L 2175,7045"/>
 <path fill="none" stroke="rgb(179,179,179)" stroke-linejoin="round" d="M 2398,7195 L 2398,7045"/>
 <path fill="none" stroke="rgb(179,179,179)" stroke-linejoin="round" d="M 2398,7195 L 2398,7045"/>
 <path fill="none" stroke="rgb(179,179,179)" stroke-linejoin="round" d="M 2622,7195 L 2622,7045"/>
 <path fill="none" stroke="rgb(179,179,179)" stroke-linejoin="round" d="M 2622,7195 L 2622,7045"/>
 <path fill="none" stroke="rgb(179,179,179)" stroke-linejoin="round" d="M 2845,7195 L 2845,7045"/>
 <path fill="none" stroke="rgb(179,179,179)" stroke-linejoin="round" d="M 2845,7195 L 2845,7045"/>
 <path fill="none" stroke="rgb(179,179,179)" stroke-linejoin="round" d="M 3068,7195 L 3068,7045"/>
 <path fill="none" stroke="rgb(179,179,179)" stroke-linejoin="round" d="M 3068,7195 L 3068,7045"/>
 <path fill="none" stroke="rgb(179,179,179)" stroke-linejoin="round" d="M 3292,7195 L 3292,7045"/>
 <path fill="none" stroke="rgb(179,179,179)" stroke-linejoin="round" d="M 3292,7195 L 3292,7045"/>
 <path fill="none" stroke="rgb(179,179,179)" stroke-linejoin="round" d="M 3515,7195 L 3515,7045"/>
 <path fill="none" stroke="rgb(179,179,179)" stroke-linejoin="round" d="M 3515,7195 L 3515,7045"/>
 <path fill="none" stroke="rgb(179,179,179)" stroke-linejoin="round" d="M 3739,7195 L 3739,7045"/>
 <path fill="none" stroke="rgb(179,179,179)" stroke-linejoin="round" d="M 3739,7195 L 3739,7045"/>
 <path fill="none" stroke="rgb(179,179,179)" stroke-linejoin="round" d="M 3962,7195 L 3962,7045"/>
 <path fill="none" stroke="rgb(179,179,179)" stroke-linejoin="round" d="M 3962,7195 L 3962,7045"/>
 <path fill="none" stroke="rgb(179,179,179)" stroke-linejoin="round" d="M 4185,7195 L 4185,7045"/>
 <path fill="none" stroke="rgb(179,179,179)" stroke-linejoin="round" d="M 4185,7195 L 4185,7045"/>
 <path fill="none" stroke="rgb(179,179,179)" stroke-linejoin="round" d="M 4409,7195 L 4409,7045"/>
 <path fill="none" stroke="rgb(179,179,179)" stroke-linejoin="round" d="M 4409,7195 L 4409,7045"/>
 <path fill="none" stroke="rgb(179,179,179)" stroke-linejoin="round" d="M 4632,7195 L 4632,7045"/>
 <path fill="none" stroke="rgb(179,179,179)" stroke-linejoin="round" d="M 4632,7195 L 4632,7045"/>
 <path fill="none" stroke="rgb(179,179,179)" stroke-linejoin="round" d="M 4855,7195 L 4855,7045"/>
 <path fill="none" stroke="rgb(179,179,179)" stroke-linejoin="round" d="M 4855,7195 L 4855,7045"/>
 <path fill="none" stroke="rgb(179,179,179)" stroke-linejoin="round" d="M 5079,7195 L 5079,7045"/>
 <path fill="none" stroke="rgb(179,179,179)" stroke-linejoin="round" d="M 5079,7195 L 5079,7045"/>
 <path fill="none" stroke="rgb(179,179,179)" stroke-linejoin="round" d="M 5302,7195 L 5302,7045"/>
 <path fill="none" stroke="rgb(179,179,179)" stroke-linejoin="round" d="M 5302,7195 L 5302,7045"/>
 <path fill="none" stroke="rgb(179,179,179)" stroke-linejoin="round" d="M 5526,7195 L 5526,7045"/>
 <path fill="none" stroke="rgb(179,179,179)" stroke-linejoin="round" d="M 5526,7195 L 5526,7045"/>
 <path fill="none" stroke="rgb(179,179,179)" stroke-linejoin="round" d="M 5749,7195 L 5749,7045"/>
 <path fill="none" stroke="rgb(179,179,179)" stroke-linejoin="round" d="M 5749,7195 L 5749,7045"/>
 <path fill="none" stroke="rgb(179,179,179)" stroke-linejoin="round" d="M 5972,7195 L 5972,7045"/>
 <path fill="none" stroke="rgb(179,179,179)" stroke-linejoin="round" d="M 5972,7195 L 5972,7045"/>
 <path fill="none" stroke="rgb(179,179,179)" stroke-linejoin="round" d="M 6196,7195 L 6196,7045"/>
 <path fill="none" stroke="rgb(179,179,179)" stroke-linejoin="round" d="M 6196,7195 L 6196,7045"/>
 <path fill="none" stroke="rgb(179,179,179)" stroke-linejoin="round" d="M 6419,7195 L 6419,7045"/>
 <path fill="none" stroke="rgb(179,179,179)" stroke-linejoin="round" d="M 6419,7195 L 6419,7045"/>
 <path fill="none" stroke="rgb(179,179,179)" stroke-linejoin="round" d="M 6643,7195 L 6643,7045"/>
 <path fill="none" stroke="rgb(179,179,179)" stroke-linejoin="round" d="M 6643,7195 L 6643,7045"/>
 <path fill="none" stroke="rgb(179,179,179)" stroke-linejoin="round" d="M 6866,7195 L 6866,7045"/>
 <path fill="none" stroke="rgb(179,179,179)" stroke-linejoin="round" d="M 6866,7195 L 6866,7045"/>
 <path fill="none" stroke="rgb(179,179,179)" stroke-linejoin="round" d="M 7089,7195 L 7089,7045"/>
 <path fill="none" stroke="rgb(179,179,179)" stroke-linejoin="round" d="M 7089,7195 L 7089,7045"/>
 <path fill="none" stroke="rgb(179,179,179)" stroke-linejoin="round" d="M 7313,7195 L 7313,7045"/>
 <path fill="none" stroke="rgb(179,179,179)" stroke-linejoin="round" d="M 7313,7195 L 7313,7045"/>
 <path fill="none" stroke="rgb(179,179,179)" stroke-linejoin="round" d="M 7536,7195 L 7536,7045"/>
 <path fill="none" stroke="rgb(179,179,179)" stroke-linejoin="round" d="M 7536,7195 L 7536,7045"/>
 <path fill="none" stroke="rgb(179,179,179)" stroke-linejoin="round" d="M 7759,7195 L 7759,7045"/>
 <path fill="none" stroke="rgb(179,179,179)" stroke-linejoin="round" d="M 7759,7195 L 7759,7045"/>
 <path fill="none" stroke="rgb(179,179,179)" stroke-linejoin="round" d="M 7983,7195 L 7983,7045"/>
 <path fill="none" stroke="rgb(179,179,179)" stroke-linejoin="round" d="M 7983,7195 L 7983,7045"/>
 <path fill="none" stroke="rgb(179,179,179)" stroke-linejoin="round" d="M 8205,7195 L 8205,7045"/>
 <path fill="none" stroke="rgb(179,179,179)" stroke-linejoin="round" d="M 8205,7195 L 8205,7045"/>
 <path fill="none" stroke="rgb(179,179,179)" stroke-linejoin="round" d="M 8429,7195 L 8429,7045"/>
 <path fill="none" stroke="rgb(179,179,179)" stroke-linejoin="round" d="M 8429,7195 L 8429,7045"/>
 <path fill="none" stroke="rgb(179,179,179)" stroke-linejoin="round" d="M 8652,7195 L 8652,7045"/>
 <path fill="none" stroke="rgb(179,179,179)" stroke-linejoin="round" d="M 8652,7195 L 8652,7045"/>
 <path fill="none" stroke="rgb(179,179,179)" stroke-linejoin="round" d="M 8875,7195 L 8875,7045"/>
 <path fill="none" stroke="rgb(179,179,179)" stroke-linejoin="round" d="M 8875,7195 L 8875,7045"/>
 <path fill="none" stroke="rgb(179,179,179)" stroke-linejoin="round" d="M 9099,7195 L 9099,7045"/>
 <path fill="none" stroke="rgb(179,179,179)" stroke-linejoin="round" d="M 9099,7195 L 9099,7045"/>
 <path fill="none" stroke="rgb(179,179,179)" stroke-linejoin="round" d="M 9322,7195 L 9322,7045"/>
 <path fill="none" stroke="rgb(179,179,179)" stroke-linejoin="round" d="M 9322,7195 L 9322,7045"/>
 <path fill="none" stroke="rgb(179,179,179)" stroke-linejoin="round" d="M 9546,7195 L 9546,7045"/>
 <path fill="none" stroke="rgb(179,179,179)" stroke-linejoin="round" d="M 9546,7195 L 9546,7045"/>
 <path fill="none" stroke="rgb(179,179,179)" stroke-linejoin="round" d="M 9769,7195 L 9769,7045"/>
 <path fill="none" stroke="rgb(179,179,179)" stroke-linejoin="round" d="M 9769,7195 L 9769,7045"/>
 <path fill="none" stroke="rgb(179,179,179)" stroke-linejoin="round" d="M 9992,7195 L 9992,7045"/>
 <path fill="none" stroke="rgb(179,179,179)" stroke-linejoin="round" d="M 9992,7195 L 9992,7045"/>
 <path fill="none" stroke="rgb(179,179,179)" stroke-linejoin="round" d="M 10216,7195 L 10216,7045"/>
 <path fill="none" stroke="rgb(179,179,179)" stroke-linejoin="round" d="M 10216,7195 L 10216,7045"/>
 <path fill="none" stroke="rgb(179,179,179)" stroke-linejoin="round" d="M 10439,7195 L 10439,7045"/>
 <path fill="none" stroke="rgb(179,179,179)" stroke-linejoin="round" d="M 10439,7195 L 10439,7045"/>
 <path fill="none" stroke="rgb(179,179,179)" stroke-linejoin="round" d="M 10662,7195 L 10662,7045"/>
 <path fill="none" stroke="rgb(179,179,179)" stroke-linejoin="round" d="M 10662,7195 L 10662,7045"/>
 <path fill="none" stroke="rgb(179,179,179)" stroke-linejoin="round" d="M 10886,7195 L 10886,7045"/>
 <path fill="none" stroke="rgb(179,179,179)" stroke-linejoin="round" d="M 10886,7195 L 10886,7045"/>
 <path fill="none" stroke="rgb(179,179,179)" stroke-linejoin="round" d="M 11109,7195 L 11109,7045"/>
 <path fill="none" stroke="rgb(179,179,179)" stroke-linejoin="round" d="M 11109,7195 L 11109,7045"/>
 <path fill="none" stroke="rgb(179,179,179)" stroke-linejoin="round" d="M 11333,7195 L 11333,7045"/>
 <path fill="none" stroke="rgb(179,179,179)" stroke-linejoin="round" d="M 11333,7195 L 11333,7045"/>
 <path fill="none" stroke="rgb(179,179,179)" stroke-linejoin="round" d="M 11556,7195 L 11556,7045"/>
 <path fill="none" stroke="rgb(179,179,179)" stroke-linejoin="round" d="M 11556,7195 L 11556,7045"/>
 <path fill="none" stroke="rgb(179,179,179)" stroke-linejoin="round" d="M 11779,7195 L 11779,7045"/>
 <path fill="none" stroke="rgb(179,179,179)" stroke-linejoin="round" d="M 11779,7195 L 11779,7045"/>
 <path fill="none" stroke="rgb(179,179,179)" stroke-linejoin="round" d="M 12003,7195 L 12003,7045"/>
 <path fill="none" stroke="rgb(179,179,179)" stroke-linejoin="round" d="M 12003,7195 L 12003,7045"/>
 <path fill="none" stroke="rgb(179,179,179)" stroke-linejoin="round" d="M 12226,7195 L 12226,7045"/>
 <path fill="none" stroke="rgb(179,179,179)" stroke-linejoin="round" d="M 12226,7195 L 12226,7045"/>
 <path fill="none" stroke="rgb(179,179,179)" stroke-linejoin="round" d="M 12450,7195 L 12450,7045"/>
 <path fill="none" stroke="rgb(179,179,179)" stroke-linejoin="round" d="M 12450,7195 L 12450,7045"/>
 <path fill="none" stroke="rgb(179,179,179)" stroke-linejoin="round" d="M 12673,7195 L 12673,7045"/>
 <path fill="none" stroke="rgb(179,179,179)" stroke-linejoin="round" d="M 12673,7195 L 12673,7045"/>
 <path fill="none" stroke="rgb(179,179,179)" stroke-linejoin="round" d="M 12896,7195 L 12896,7045"/>
 <path fill="none" stroke="rgb(179,179,179)" stroke-linejoin="round" d="M 12896,7195 L 12896,7045"/>
 <path fill="none" stroke="rgb(179,179,179)" stroke-linejoin="round" d="M 13120,7195 L 13120,7045"/>
 <path fill="none" stroke="rgb(179,179,179)" stroke-linejoin="round" d="M 13120,7195 L 13120,7045"/>
 <path fill="none" stroke="rgb(179,179,179)" stroke-linejoin="round" d="M 13343,7195 L 13343,7045"/>
 <path fill="none" stroke="rgb(179,179,179)" stroke-linejoin="round" d="M 13343,7195 L 13343,7045"/>
 <path fill="none" stroke="rgb(179,179,179)" stroke-linejoin="round" d="M 13566,7195 L 13566,7045"/>
 <path fill="none" stroke="rgb(179,179,179)" stroke-linejoin="round" d="M 13566,7195 L 13566,7045"/>
 <path fill="none" stroke="rgb(179,179,179)" stroke-linejoin="round" d="M 13790,7195 L 13790,7045"/>
 <path fill="none" stroke="rgb(179,179,179)" stroke-linejoin="round" d="M 13790,7195 L 13790,7045"/>
 <path fill="none" stroke="rgb(179,179,179)" stroke-linejoin="round" d="M 14013,7195 L 14013,7045"/>
 <path fill="none" stroke="rgb(179,179,179)" stroke-linejoin="round" d="M 14013,7195 L 14013,7045"/>
 <path fill="none" stroke="rgb(179,179,179)" stroke-linejoin="round" d="M 14237,7195 L 14237,7045"/>
 <path fill="none" stroke="rgb(179,179,179)" stroke-linejoin="round" d="M 14237,7195 L 14237,7045"/>
 <path fill="none" stroke="rgb(179,179,179)" stroke-linejoin="round" d="M 14460,7195 L 14460,7045"/>
 <path fill="none" stroke="rgb(179,179,179)" stroke-linejoin="round" d="M 14460,7195 L 14460,7045"/>
 <path fill="none" stroke="rgb(179,179,179)" stroke-linejoin="round" d="M 14683,7195 L 14683,7045"/>
 <path fill="none" stroke="rgb(179,179,179)" stroke-linejoin="round" d="M 14683,7195 L 14683,7045"/>
 <path fill="none" stroke="rgb(179,179,179)" stroke-linejoin="round" d="M 14907,7195 L 14907,7045"/>
 <path fill="none" stroke="rgb(179,179,179)" stroke-linejoin="round" d="M 14907,7195 L 14907,7045"/>
 <path fill="none" stroke="rgb(179,179,179)" stroke-linejoin="round" d="M 15130,7195 L 15130,7045"/>
 <path fill="none" stroke="rgb(179,179,179)" stroke-linejoin="round" d="M 15130,7195 L 15130,7045"/>
 <path fill="none" stroke="rgb(179,179,179)" stroke-linejoin="round" d="M 15354,7195 L 15354,7045"/>
 <path fill="none" stroke="rgb(179,179,179)" stroke-linejoin="round" d="M 15354,7195 L 15354,7045"/>
 <path fill="none" stroke="rgb(179,179,179)" stroke-linejoin="round" d="M 1952,7045 L 15354,7045"/>
 <path fill="none" stroke="rgb(179,179,179)" stroke-linejoin="round" d="M 1802,7045 L 1952,7045"/>
 <path fill="none" stroke="rgb(179,179,179)" stroke-linejoin="round" d="M 1802,7045 L 1952,7045"/>
 <path fill="none" stroke="rgb(179,179,179)" stroke-linejoin="round" d="M 1802,5933 L 1952,5933"/>
 <path fill="none" stroke="rgb(179,179,179)" stroke-linejoin="round" d="M 1802,5933 L 1952,5933"/>
 <path fill="none" stroke="rgb(179,179,179)" stroke-linejoin="round" d="M 1802,4822 L 1952,4822"/>
 <path fill="none" stroke="rgb(179,179,179)" stroke-linejoin="round" d="M 1802,4822 L 1952,4822"/>
 <path fill="none" stroke="rgb(179,179,179)" stroke-linejoin="round" d="M 1802,3712 L 1952,3712"/>
 <path fill="none" stroke="rgb(179,179,179)" stroke-linejoin="round" d="M 1802,3712 L 1952,3712"/>
 <path fill="none" stroke="rgb(179,179,179)" stroke-linejoin="round" d="M 1802,2600 L 1952,2600"/>
 <path fill="none" stroke="rgb(179,179,179)" stroke-linejoin="round" d="M 1802,2600 L 1952,2600"/>
 <path fill="none" stroke="rgb(179,179,179)" stroke-linejoin="round" d="M 1802,1489 L 1952,1489"/>
 <path fill="none" stroke="rgb(179,179,179)" stroke-linejoin="round" d="M 1802,1489 L 1952,1489"/>
 <path fill="none" stroke="rgb(179,179,179)" stroke-linejoin="round" d="M 1802,378 L 1952,378"/>
 <path fill="none" stroke="rgb(179,179,179)" stroke-linejoin="round" d="M 1802,378 L 1952,378"/>
 <path fill="none" stroke="rgb(179,179,179)" stroke-linejoin="round" d="M 1952,7045 L 1952,378"/>
 <path fill="none" stroke="rgb(0,69,134)" stroke-width="80" stroke-linejoin="round" d="M 1952,7045 L 2175,6861 2398,6680 2622,6503 2845,6328 3068,6157 3292,5989 3515,5824 3739,5662 3962,5503 4185,5347 4409,5194 4632,5044 4855,4897 5079,4754 5302,4613 5526,4477 5749,4343 5972,4212 6196,4083 6419,3958 6643,3837 6866,3718 7089,3602 7313,3489 7536,3380 7759,3273 7983,3170 8205,3069 8429,2972 8652,2878 8875,2787 9099,2699 9322,2614 9546,2532 9769,2454 9992,2378 10216,2305 10439,2236 10662,2170 10886,2106 11109,2046 11333,1989 11556,1935 11779,1884 12003,1836 12226,1791 12450,1750 12673,1711 12896,1676 13120,1643 13343,1614 13566,1588 13790,1564 14013,1544 14237,1527 14460,1514 14683,1503 14907,1495 15130,1490"/>
 <text class="TextShape" transform="translate(1904,7652) rotate(-44.9) translate(-1904,-7652)"><tspan class="TextParagraph" font-family="Liberation Sans" font-size="353px" font-weight="400"><tspan class="TextPosition" x="1904" y="7652"><tspan fill="rgb(0,0,0)" stroke="none">1</tspan></tspan></tspan></text>
 <text class="TextShape" transform="translate(3244,7652) rotate(-44.9) translate(-3244,-7652)"><tspan class="TextParagraph" font-family="Liberation Sans" font-size="353px" font-weight="400"><tspan class="TextPosition" x="3244" y="7652"><tspan fill="rgb(0,0,0)" stroke="none">7</tspan></tspan></tspan></text>
 <text class="TextShape" transform="translate(2574,7652) rotate(-44.9) translate(-2574,-7652)"><tspan class="TextParagraph" font-family="Liberation Sans" font-size="353px" font-weight="400"><tspan class="TextPosition" x="2574" y="7652"><tspan fill="rgb(0,0,0)" stroke="none">4</tspan></tspan></tspan></text>
 <text class="TextShape" transform="translate(3783,7782) rotate(-44.9) translate(-3783,-7782)"><tspan class="TextParagraph" font-family="Liberation Sans" font-size="353px" font-weight="400"><tspan class="TextPosition" x="3783" y="7782"><tspan fill="rgb(0,0,0)" stroke="none">10</tspan></tspan></tspan></text>
 <text class="TextShape" transform="translate(4453,7782) rotate(-44.9) translate(-4453,-7782)"><tspan class="TextParagraph" font-family="Liberation Sans" font-size="353px" font-weight="400"><tspan class="TextPosition" x="4453" y="7782"><tspan fill="rgb(0,0,0)" stroke="none">13</tspan></tspan></tspan></text>
 <text class="TextShape" transform="translate(5123,7782) rotate(-44.9) translate(-5123,-7782)"><tspan class="TextParagraph" font-family="Liberation Sans" font-size="353px" font-weight="400"><tspan class="TextPosition" x="5123" y="7782"><tspan fill="rgb(0,0,0)" stroke="none">16</tspan></tspan></tspan></text>
 <text class="TextShape" transform="translate(5793,7782) rotate(-44.9) translate(-5793,-7782)"><tspan class="TextParagraph" font-family="Liberation Sans" font-size="353px" font-weight="400"><tspan class="TextPosition" x="5793" y="7782"><tspan fill="rgb(0,0,0)" stroke="none">19</tspan></tspan></tspan></text>
 <text class="TextShape" transform="translate(6464,7782) rotate(-44.9) translate(-6464,-7782)"><tspan class="TextParagraph" font-family="Liberation Sans" font-size="353px" font-weight="400"><tspan class="TextPosition" x="6464" y="7782"><tspan fill="rgb(0,0,0)" stroke="none">22</tspan></tspan></tspan></text>
 <text class="TextShape" transform="translate(7134,7782) rotate(-44.9) translate(-7134,-7782)"><tspan class="TextParagraph" font-family="Liberation Sans" font-size="353px" font-weight="400"><tspan class="TextPosition" x="7134" y="7782"><tspan fill="rgb(0,0,0)" stroke="none">25</tspan></tspan></tspan></text>
 <text class="TextShape" transform="translate(7804,7782) rotate(-44.9) translate(-7804,-7782)"><tspan class="TextParagraph" font-family="Liberation Sans" font-size="353px" font-weight="400"><tspan class="TextPosition" x="7804" y="7782"><tspan fill="rgb(0,0,0)" stroke="none">28</tspan></tspan></tspan></text>
 <text class="TextShape" transform="translate(8474,7782) rotate(-44.9) translate(-8474,-7782)"><tspan class="TextParagraph" font-family="Liberation Sans" font-size="353px" font-weight="400"><tspan class="TextPosition" x="8474" y="7782"><tspan fill="rgb(0,0,0)" stroke="none">31</tspan></tspan></tspan></text>
 <text class="TextShape" transform="translate(9144,7782) rotate(-44.9) translate(-9144,-7782)"><tspan class="TextParagraph" font-family="Liberation Sans" font-size="353px" font-weight="400"><tspan class="TextPosition" x="9144" y="7782"><tspan fill="rgb(0,0,0)" stroke="none">34</tspan></tspan></tspan></text>
 <text class="TextShape" transform="translate(9814,7782) rotate(-44.9) translate(-9814,-7782)"><tspan class="TextParagraph" font-family="Liberation Sans" font-size="353px" font-weight="400"><tspan class="TextPosition" x="9814" y="7782"><tspan fill="rgb(0,0,0)" stroke="none">37</tspan></tspan></tspan></text>
 <text class="TextShape" transform="translate(10484,7782) rotate(-44.9) translate(-10484,-7782)"><tspan class="TextParagraph" font-family="Liberation Sans" font-size="353px" font-weight="400"><tspan class="TextPosition" x="10484" y="7782"><tspan fill="rgb(0,0,0)" stroke="none">40</tspan></tspan></tspan></text>
 <text class="TextShape" transform="translate(11155,7782) rotate(-44.9) translate(-11155,-7782)"><tspan class="TextParagraph" font-family="Liberation Sans" font-size="353px" font-weight="400"><tspan class="TextPosition" x="11155" y="7782"><tspan fill="rgb(0,0,0)" stroke="none">43</tspan></tspan></tspan></text>
 <text class="TextShape" transform="translate(11824,7782) rotate(-44.9) translate(-11824,-7782)"><tspan class="TextParagraph" font-family="Liberation Sans" font-size="353px" font-weight="400"><tspan class="TextPosition" x="11824" y="7782"><tspan fill="rgb(0,0,0)" stroke="none">46</tspan></tspan></tspan></text>
 <text class="TextShape" transform="translate(12494,7782) rotate(-44.9) translate(-12494,-7782)"><tspan class="TextParagraph" font-family="Liberation Sans" font-size="353px" font-weight="400"><tspan class="TextPosition" x="12494" y="7782"><tspan fill="rgb(0,0,0)" stroke="none">49</tspan></tspan></tspan></text>
 <text class="TextShape" transform="translate(13164,7782) rotate(-44.9) translate(-13164,-7782)"><tspan class="TextParagraph" font-family="Liberation Sans" font-size="353px" font-weight="400"><tspan class="TextPosition" x="13164" y="7782"><tspan fill="rgb(0,0,0)" stroke="none">52</tspan></tspan></tspan></text>
 <text class="TextShape" transform="translate(13834,7782) rotate(-44.9) translate(-13834,-7782)"><tspan class="TextParagraph" font-family="Liberation Sans" font-size="353px" font-weight="400"><tspan class="TextPosition" x="13834" y="7782"><tspan fill="rgb(0,0,0)" stroke="none">55</tspan></tspan></tspan></text>
 <text class="TextShape" transform="translate(14504,7782) rotate(-44.9) translate(-14504,-7782)"><tspan class="TextParagraph" font-family="Liberation Sans" font-size="353px" font-weight="400"><tspan class="TextPosition" x="14504" y="7782"><tspan fill="rgb(0,0,0)" stroke="none">58</tspan></tspan></tspan></text>
 <text class="TextShape" transform="translate(15175,7782) rotate(-44.9) translate(-15175,-7782)"><tspan class="TextParagraph" font-family="Liberation Sans" font-size="353px" font-weight="400"><tspan class="TextPosition" x="15175" y="7782"><tspan fill="rgb(0,0,0)" stroke="none">61</tspan></tspan></tspan></text>
 <text class="TextShape"><tspan class="TextParagraph" font-family="Liberation Sans" font-size="353px" font-weight="400"><tspan class="TextPosition" x="1517" y="7166"><tspan fill="rgb(0,0,0)" stroke="none">0</tspan></tspan></tspan></text>
 <text class="TextShape"><tspan class="TextParagraph" font-family="Liberation Sans" font-size="353px" font-weight="400"><tspan class="TextPosition" x="1332" y="6054"><tspan fill="rgb(0,0,0)" stroke="none">20</tspan></tspan></tspan></text>
 <text class="TextShape"><tspan class="TextParagraph" font-family="Liberation Sans" font-size="353px" font-weight="400"><tspan class="TextPosition" x="1332" y="4943"><tspan fill="rgb(0,0,0)" stroke="none">40</tspan></tspan></tspan></text>
 <text class="TextShape"><tspan class="TextParagraph" font-family="Liberation Sans" font-size="353px" font-weight="400"><tspan class="TextPosition" x="1332" y="3832"><tspan fill="rgb(0,0,0)" stroke="none">60</tspan></tspan></tspan></text>
 <text class="TextShape"><tspan class="TextParagraph" font-family="Liberation Sans" font-size="353px" font-weight="400"><tspan class="TextPosition" x="1332" y="2720"><tspan fill="rgb(0,0,0)" stroke="none">80</tspan></tspan></tspan></text>
 <text class="TextShape"><tspan class="TextParagraph" font-family="Liberation Sans" font-size="353px" font-weight="400"><tspan class="TextPosition" x="1146" y="1609"><tspan fill="rgb(0,0,0)" stroke="none">100</tspan></tspan></tspan></text>
 <text class="TextShape"><tspan class="TextParagraph" font-family="Liberation Sans" font-size="353px" font-weight="400"><tspan class="TextPosition" x="1146" y="498"><tspan fill="rgb(0,0,0)" stroke="none">120</tspan></tspan></tspan></text>
 <text class="TextShape"><tspan class="TextParagraph" font-family="Liberation Sans" font-size="318px" font-weight="400"><tspan class="TextPosition" x="7499" y="8405"><tspan fill="rgb(0,0,0)" stroke="none">Minút čakania</tspan></tspan></tspan></text>
 <text class="TextShape" transform="translate(837,6019) rotate(-89.9) translate(-837,-6019)"><tspan class="TextParagraph" font-family="Liberation Sans" font-size="318px" font-weight="400"><tspan class="TextPosition" x="837" y="6019"><tspan fill="rgb(0,0,0)" stroke="none">Pravdepodobnosť stretnutia</tspan></tspan></tspan></text>
</svg>